<svg width="345" height="250" viewBox="0 0 345 250" fill="none" xmlns="http://www.w3.org/2000/svg">
<rect width="345" height="250" fill="white"/>
<rect x="54.5" y="89.5" width="19" height="19" stroke="black"/>
<rect x="54.5" y="146.5" width="19" height="19" stroke="black"/>
<rect x="54.5" y="108.5" width="19" height="19" stroke="black"/>
<rect x="54.5" y="127.5" width="19" height="19" stroke="black"/>
<rect x="73.5" y="89.5" width="19" height="19" stroke="black"/>
<rect x="73.5" y="146.5" width="19" height="19" stroke="black"/>
<rect x="73.5" y="108.5" width="19" height="19" stroke="black"/>
<rect x="73.5" y="127.5" width="19" height="19" stroke="black"/>
<line x1="45.5" y1="153" x2="45.5" y2="76" stroke="black"/>
<line x1="49.5" y1="159" x2="49.5" y2="82" stroke="black"/>
<line x1="45.4111" y1="76.7154" x2="54.4111" y2="89.7154" stroke="black"/>
<line x1="45.4111" y1="95.7154" x2="54.4111" y2="108.715" stroke="black"/>
<line x1="45.4111" y1="114.715" x2="54.4111" y2="127.715" stroke="black"/>
<line x1="45.4111" y1="133.715" x2="54.4111" y2="146.715" stroke="black"/>
<path d="M46 19L55 32" stroke="black"/>
<line x1="83.4111" y1="19.7154" x2="92.4111" y2="32.7154" stroke="black"/>
<line x1="45.4111" y1="152.715" x2="54.4111" y2="165.715" stroke="black"/>
<line x1="45.4111" y1="209.715" x2="54.4111" y2="222.715" stroke="black"/>
<line x1="45" y1="19.5" x2="84" y2="19.5" stroke="black"/>
<line x1="54" y1="222.5" x2="93" y2="222.5" stroke="black"/>
<line x1="55" y1="31.5" x2="93" y2="31.5" stroke="black"/>
<line x1="54.5" y1="32" x2="54.5" y2="89" stroke="black"/>
<line x1="45.5" y1="20" x2="45.5" y2="77" stroke="black"/>
<line x1="54.5" y1="166" x2="54.5" y2="223" stroke="black"/>
<line x1="45.5" y1="153" x2="45.5" y2="210" stroke="black"/>
<line x1="92.5" y1="32" x2="92.5" y2="89" stroke="black"/>
<line x1="92.5" y1="165" x2="92.5" y2="222" stroke="black"/>
<rect x="151.5" y="88.5" width="19" height="19" stroke="black"/>
<rect x="151.5" y="145.5" width="19" height="19" stroke="black"/>
<rect x="151.5" y="107.5" width="19" height="19" stroke="black"/>
<rect x="151.5" y="126.5" width="19" height="19" stroke="black"/>
<rect x="170.5" y="88.5" width="19" height="19" stroke="black"/>
<rect x="170.5" y="145.5" width="19" height="19" stroke="black"/>
<rect x="170.5" y="107.5" width="19" height="19" stroke="black"/>
<rect x="170.5" y="126.5" width="19" height="19" stroke="black"/>
<line x1="142.5" y1="152" x2="142.5" y2="75" stroke="black"/>
<line x1="146.5" y1="158" x2="146.5" y2="81" stroke="black"/>
<line x1="142.411" y1="75.7154" x2="151.411" y2="88.7154" stroke="black"/>
<line x1="142.411" y1="94.7154" x2="151.411" y2="107.715" stroke="black"/>
<line x1="142.411" y1="113.715" x2="151.411" y2="126.715" stroke="black"/>
<line x1="142.411" y1="132.715" x2="151.411" y2="145.715" stroke="black"/>
<line x1="161.411" y1="75.7154" x2="170.411" y2="88.7154" stroke="black"/>
<line x1="180.411" y1="75.7154" x2="189.411" y2="88.7154" stroke="black"/>
<line x1="142.411" y1="151.715" x2="151.411" y2="164.715" stroke="black"/>
<line x1="133.411" y1="120.715" x2="142.411" y2="133.715" stroke="#FF0000"/>
<line x1="142.413" y1="133.718" x2="157.413" y2="155.718" stroke="#FF0000" stroke-dasharray="2 2"/>
<line x1="142" y1="75.5" x2="181" y2="75.5" stroke="black"/>
<line x1="147" y1="81.5" x2="185" y2="81.5" stroke="black"/>
<line x1="157.5" y1="52" x2="157.5" y2="84" stroke="#0029FF"/>
<line x1="157.5" y1="84" x2="157.5" y2="155" stroke="#0029FF" stroke-dasharray="2 2"/>
<line x1="210" y1="155.5" x2="190" y2="155.5" stroke="#1BC100"/>
<line x1="189" y1="155.5" x2="157" y2="155.5" stroke="#1BC100" stroke-dasharray="2 2"/>
<path d="M155.611 49V48.3608L158.707 44.3835V44.3267H155.71V43.5455H159.787V44.2131L156.776 48.1619V48.2188H159.886V49H155.611Z" fill="#0029FF"/>
<path d="M212.307 160.045C212.165 160.045 212.038 160.034 211.927 160.01C211.816 159.989 211.739 159.967 211.696 159.946L211.909 159.207C212.113 159.259 212.293 159.278 212.449 159.264C212.605 159.25 212.744 159.18 212.864 159.055C212.987 158.932 213.1 158.732 213.202 158.455L213.358 158.028L211.341 152.545H212.25L213.756 156.892H213.812L215.318 152.545H216.227L213.912 158.795C213.808 159.077 213.679 159.31 213.525 159.495C213.371 159.682 213.192 159.821 212.989 159.911C212.787 160 212.56 160.045 212.307 160.045Z" fill="#1BC100"/>
<path d="M127.392 112.545L128.699 114.776L130.006 112.545H130.972L129.21 115.273L130.972 118H130.006L128.699 115.884L127.392 118H126.426L128.159 115.273L126.426 112.545H127.392Z" fill="#FF0000"/>
<path d="M136.746 169.852C136.746 169.226 136.827 168.65 136.989 168.125C137.153 167.598 137.387 167.113 137.69 166.67H138.207C138.088 166.835 137.976 167.037 137.872 167.277C137.769 167.516 137.679 167.778 137.601 168.065C137.523 168.35 137.462 168.645 137.417 168.95C137.374 169.255 137.352 169.556 137.352 169.852C137.352 170.247 137.39 170.647 137.467 171.053C137.543 171.459 137.646 171.836 137.775 172.184C137.904 172.532 138.048 172.815 138.207 173.034H137.69C137.387 172.592 137.153 172.108 136.989 171.582C136.827 171.055 136.746 170.479 136.746 169.852ZM144.323 171.304L144.283 171.572C144.255 171.761 144.212 171.964 144.154 172.179C144.098 172.394 144.039 172.597 143.978 172.788C143.916 172.979 143.866 173.13 143.826 173.243H143.378C143.4 173.137 143.428 172.997 143.463 172.823C143.498 172.649 143.533 172.454 143.567 172.239C143.604 172.025 143.634 171.806 143.657 171.582L143.687 171.304H144.323ZM152.629 171.304L152.589 171.572C152.561 171.761 152.518 171.964 152.46 172.179C152.403 172.394 152.345 172.597 152.283 172.788C152.222 172.979 152.171 173.13 152.132 173.243H151.684C151.706 173.137 151.734 172.997 151.769 172.823C151.803 172.649 151.838 172.454 151.873 172.239C151.91 172.025 151.939 171.806 151.963 171.582L151.992 171.304H152.629ZM161.312 169.852C161.312 170.479 161.23 171.055 161.066 171.582C160.904 172.108 160.671 172.592 160.368 173.034H159.851C159.97 172.87 160.081 172.668 160.184 172.428C160.288 172.189 160.379 171.927 160.457 171.642C160.535 171.355 160.595 171.06 160.639 170.755C160.683 170.448 160.706 170.147 160.706 169.852C160.706 169.458 160.668 169.058 160.591 168.652C160.515 168.246 160.412 167.869 160.283 167.521C160.154 167.173 160.01 166.889 159.851 166.67H160.368C160.671 167.113 160.904 167.598 161.066 168.125C161.23 168.65 161.312 169.226 161.312 169.852Z" fill="black"/>
<path d="M140.724 172.07C140.349 172.07 140.03 171.968 139.767 171.764C139.503 171.558 139.302 171.261 139.163 170.871C139.023 170.48 138.954 170.008 138.954 169.455C138.954 168.904 139.023 168.435 139.163 168.045C139.303 167.654 139.506 167.356 139.769 167.15C140.034 166.943 140.352 166.839 140.724 166.839C141.095 166.839 141.412 166.943 141.676 167.15C141.941 167.356 142.143 167.654 142.282 168.045C142.423 168.435 142.494 168.904 142.494 169.455C142.494 170.008 142.424 170.48 142.285 170.871C142.146 171.261 141.944 171.558 141.681 171.764C141.417 171.968 141.098 172.07 140.724 172.07ZM140.724 171.523C141.095 171.523 141.383 171.344 141.589 170.986C141.794 170.628 141.897 170.117 141.897 169.455C141.897 169.014 141.85 168.638 141.755 168.328C141.662 168.019 141.528 167.782 141.353 167.62C141.179 167.458 140.969 167.376 140.724 167.376C140.356 167.376 140.068 167.558 139.861 167.921C139.654 168.282 139.55 168.793 139.55 169.455C139.55 169.895 139.597 170.27 139.69 170.578C139.782 170.886 139.916 171.121 140.09 171.282C140.265 171.442 140.477 171.523 140.724 171.523Z" fill="#FF0000"/>
<path d="M149.029 172.07C148.655 172.07 148.336 171.968 148.072 171.764C147.809 171.558 147.607 171.261 147.468 170.871C147.329 170.48 147.259 170.008 147.259 169.455C147.259 168.904 147.329 168.435 147.468 168.045C147.609 167.654 147.811 167.356 148.075 167.15C148.34 166.943 148.658 166.839 149.029 166.839C149.401 166.839 149.718 166.943 149.981 167.15C150.247 167.356 150.449 167.654 150.588 168.045C150.729 168.435 150.799 168.904 150.799 169.455C150.799 170.008 150.73 170.48 150.59 170.871C150.451 171.261 150.25 171.558 149.986 171.764C149.723 171.968 149.404 172.07 149.029 172.07ZM149.029 171.523C149.401 171.523 149.689 171.344 149.894 170.986C150.1 170.628 150.203 170.117 150.203 169.455C150.203 169.014 150.155 168.638 150.061 168.328C149.968 168.019 149.834 167.782 149.658 167.62C149.484 167.458 149.275 167.376 149.029 167.376C148.661 167.376 148.374 167.558 148.167 167.921C147.96 168.282 147.856 168.793 147.856 169.455C147.856 169.895 147.902 170.27 147.995 170.578C148.088 170.886 148.221 171.121 148.395 171.282C148.571 171.442 148.782 171.523 149.029 171.523Z" fill="#1BC100"/>
<path d="M157.335 172.07C156.96 172.07 156.641 171.968 156.378 171.764C156.114 171.558 155.913 171.261 155.774 170.871C155.635 170.48 155.565 170.008 155.565 169.455C155.565 168.904 155.635 168.435 155.774 168.045C155.915 167.654 156.117 167.356 156.38 167.15C156.646 166.943 156.964 166.839 157.335 166.839C157.706 166.839 158.024 166.943 158.287 167.15C158.552 167.356 158.754 167.654 158.894 168.045C159.034 168.435 159.105 168.904 159.105 169.455C159.105 170.008 159.035 170.48 158.896 170.871C158.757 171.261 158.555 171.558 158.292 171.764C158.028 171.968 157.709 172.07 157.335 172.07ZM157.335 171.523C157.706 171.523 157.995 171.344 158.2 170.986C158.406 170.628 158.508 170.117 158.508 169.455C158.508 169.014 158.461 168.638 158.367 168.328C158.274 168.019 158.14 167.782 157.964 167.62C157.79 167.458 157.58 167.376 157.335 167.376C156.967 167.376 156.68 167.558 156.472 167.921C156.265 168.282 156.162 168.793 156.162 169.455C156.162 169.895 156.208 170.27 156.301 170.578C156.394 170.886 156.527 171.121 156.701 171.282C156.877 171.442 157.088 171.523 157.335 171.523Z" fill="#0029FF"/>
<path d="M244 95L249 101.5V120.5L244 114V95Z" fill="#FEEEFF"/>
<rect x="253.5" y="88.5" width="19" height="19" stroke="black"/>
<path d="M248 100L253.5 108H268V120H248V100Z" fill="#FEEEFF"/>
<rect x="253.5" y="145.5" width="19" height="19" stroke="#E5E5E5"/>
<rect x="267.5" y="119.5" width="19" height="19" stroke="#D3D3D3"/>
<rect x="248.5" y="119.5" width="19" height="19" stroke="#D3D3D3"/>
<rect x="272.5" y="145.5" width="19" height="19" stroke="#E5E5E5"/>
<line x1="244.416" y1="113.723" x2="248.416" y2="119.723" stroke="#D3D3D3"/>
<line x1="244.416" y1="132.723" x2="248.416" y2="138.723" stroke="#D3D3D3"/>
<line x1="244.416" y1="94.7226" x2="248.416" y2="100.723" stroke="#D3D3D3"/>
<line x1="244.5" y1="152" x2="244.5" y2="75" stroke="black"/>
<line x1="248.5" y1="158" x2="248.5" y2="139" stroke="#D3D3D3"/>
<line x1="248.5" y1="120" x2="248.5" y2="101" stroke="black"/>
<line x1="286.5" y1="138" x2="286.5" y2="119" stroke="black"/>
<line x1="248.5" y1="139" x2="248.5" y2="120" stroke="black"/>
<line x1="253.5" y1="164" x2="253.5" y2="145" stroke="black"/>
<line x1="291.5" y1="164" x2="291.5" y2="145" stroke="black"/>
<line x1="248.5" y1="101" x2="248.5" y2="82" stroke="#D3D3D3"/>
<line x1="267.5" y1="119" x2="267.5" y2="108" stroke="black"/>
<line x1="244.411" y1="75.7154" x2="253.411" y2="88.7154" stroke="black"/>
<line x1="248.407" y1="100.709" x2="253.407" y2="107.709" stroke="black"/>
<path d="M248 138L254 146" stroke="black"/>
<line x1="249" y1="81.5" x2="267" y2="81.5" stroke="#D3D3D3"/>
<line x1="263.411" y1="75.7154" x2="272.411" y2="88.7154" stroke="black"/>
<line x1="267.407" y1="138.709" x2="272.407" y2="145.709" stroke="#E5E5E5"/>
<path d="M286.407 138.709L291.5 145.5" stroke="black"/>
<path d="M281.5 113.5L286.5 119.5" stroke="black"/>
<line x1="244.411" y1="151.715" x2="253.411" y2="164.715" stroke="black"/>
<line x1="244" y1="75.5" x2="264" y2="75.5" stroke="black"/>
<line x1="267" y1="113.5" x2="282" y2="113.5" stroke="black"/>
<line x1="267" y1="119.5" x2="287" y2="119.5" stroke="black"/>
<path d="M289.746 105.455C289.746 104.828 289.827 104.252 289.989 103.727C290.153 103.2 290.387 102.715 290.69 102.273H291.207C291.088 102.437 290.976 102.639 290.872 102.879C290.769 103.118 290.679 103.381 290.601 103.667C290.523 103.952 290.462 104.247 290.417 104.552C290.374 104.857 290.352 105.158 290.352 105.455C290.352 105.849 290.39 106.249 290.467 106.655C290.543 107.061 290.646 107.438 290.775 107.786C290.904 108.134 291.048 108.418 291.207 108.636H290.69C290.387 108.194 290.153 107.71 289.989 107.185C289.827 106.658 289.746 106.081 289.746 105.455ZM293.853 102.909V108H293.236V103.555H293.207L291.964 104.381V103.754L293.236 102.909H293.853ZM295.901 107.304L295.861 107.572C295.833 107.761 295.79 107.964 295.732 108.179C295.676 108.394 295.617 108.597 295.556 108.788C295.494 108.979 295.444 109.13 295.404 109.243H294.957C294.978 109.137 295.006 108.997 295.041 108.823C295.076 108.649 295.111 108.454 295.146 108.239C295.182 108.025 295.212 107.806 295.235 107.582L295.265 107.304H295.901ZM300.607 108.07C300.233 108.07 299.914 107.968 299.65 107.764C299.387 107.558 299.186 107.261 299.046 106.871C298.907 106.48 298.838 106.008 298.838 105.455C298.838 104.904 298.907 104.435 299.046 104.045C299.187 103.654 299.389 103.356 299.653 103.15C299.918 102.943 300.236 102.839 300.607 102.839C300.979 102.839 301.296 102.943 301.559 103.15C301.825 103.356 302.027 103.654 302.166 104.045C302.307 104.435 302.377 104.904 302.377 105.455C302.377 106.008 302.308 106.48 302.169 106.871C302.029 107.261 301.828 107.558 301.564 107.764C301.301 107.968 300.982 108.07 300.607 108.07ZM300.607 107.523C300.979 107.523 301.267 107.344 301.472 106.986C301.678 106.628 301.781 106.117 301.781 105.455C301.781 105.014 301.733 104.638 301.639 104.328C301.546 104.019 301.412 103.782 301.236 103.62C301.062 103.458 300.853 103.376 300.607 103.376C300.24 103.376 299.952 103.558 299.745 103.921C299.538 104.282 299.434 104.793 299.434 105.455C299.434 105.895 299.481 106.27 299.573 106.578C299.666 106.886 299.8 107.121 299.974 107.282C300.149 107.442 300.36 107.523 300.607 107.523ZM304.029 107.304L303.989 107.572C303.961 107.761 303.918 107.964 303.86 108.179C303.804 108.394 303.745 108.597 303.684 108.788C303.622 108.979 303.572 109.13 303.532 109.243H303.085C303.106 109.137 303.134 108.997 303.169 108.823C303.204 108.649 303.239 108.454 303.273 108.239C303.31 108.025 303.34 107.806 303.363 107.582L303.393 107.304H304.029ZM307.075 108V107.553L308.755 105.713C308.952 105.498 309.115 105.31 309.242 105.151C309.37 104.991 309.465 104.84 309.526 104.699C309.589 104.556 309.62 104.407 309.62 104.251C309.62 104.072 309.577 103.917 309.491 103.787C309.407 103.656 309.291 103.555 309.143 103.483C308.996 103.412 308.83 103.376 308.646 103.376C308.45 103.376 308.28 103.417 308.134 103.498C307.99 103.578 307.878 103.69 307.798 103.834C307.72 103.978 307.681 104.147 307.681 104.341H307.095C307.095 104.043 307.164 103.781 307.301 103.555C307.439 103.33 307.626 103.154 307.863 103.028C308.101 102.902 308.369 102.839 308.666 102.839C308.964 102.839 309.228 102.902 309.459 103.028C309.689 103.154 309.87 103.324 310.001 103.538C310.132 103.752 310.197 103.99 310.197 104.251C310.197 104.439 310.163 104.622 310.095 104.801C310.029 104.978 309.913 105.176 309.747 105.395C309.583 105.612 309.355 105.877 309.063 106.19L307.92 107.413V107.453H310.286V108H307.075ZM312.576 105.455C312.576 106.081 312.494 106.658 312.33 107.185C312.167 107.71 311.935 108.194 311.631 108.636H311.114C311.234 108.472 311.345 108.27 311.447 108.03C311.552 107.791 311.643 107.529 311.721 107.244C311.799 106.958 311.859 106.662 311.902 106.357C311.947 106.05 311.969 105.75 311.969 105.455C311.969 105.06 311.931 104.66 311.855 104.254C311.779 103.848 311.676 103.471 311.547 103.123C311.418 102.775 311.273 102.491 311.114 102.273H311.631C311.935 102.715 312.167 103.2 312.33 103.727C312.494 104.252 312.576 104.828 312.576 105.455Z" fill="black"/>
<line x1="253" y1="164.5" x2="292" y2="164.5" stroke="black"/>
<line x1="253" y1="145.5" x2="292" y2="145.5" stroke="black"/>
<line x1="248" y1="138.5" x2="287" y2="138.5" stroke="black"/>
<path d="M260.108 113.488L261.073 113.274L260.856 112.298L259.892 112.512L260.108 113.488ZM263.001 112.845L264.93 112.417L264.713 111.44L262.784 111.869L263.001 112.845ZM266.858 111.988L268.787 111.56L268.57 110.583L266.642 111.012L266.858 111.988ZM270.716 111.131L272.644 110.702L272.427 109.726L270.499 110.155L270.716 111.131ZM274.573 110.274L276.501 109.845L276.284 108.869L274.356 109.298L274.573 110.274ZM278.43 109.417L280.358 108.988L280.142 108.012L278.213 108.44L278.43 109.417ZM282.287 108.56L284.216 108.131L283.999 107.155L282.07 107.583L282.287 108.56ZM286.144 107.702L287.108 107.488L286.892 106.512L285.927 106.726L286.144 107.702Z" fill="#80008B"/>
</svg>
