<svg width="145" height="261" viewBox="0 0 145 261" fill="none" xmlns="http://www.w3.org/2000/svg">
<rect width="145" height="261" fill="white"/>
<path d="M51.273 29.5L42.9158 16.5H80.6358L89.0791 29.5H51.273Z" stroke="black"/>
<path d="M42 207L51 221H90" stroke="black"/>
<line x1="42.5" y1="16" x2="42.5" y2="73" stroke="black"/>
<rect x="46.5" y="112.5" width="19" height="19" stroke="#D3D3D3"/>
<rect x="70.5" y="138.5" width="19" height="19" stroke="#E5E5E5"/>
<rect x="70.5" y="138.5" width="19" height="19" stroke="#E5E5E5"/>
<line x1="42.416" y1="106.723" x2="46.416" y2="112.723" stroke="#D3D3D3"/>
<line x1="42.416" y1="125.723" x2="46.416" y2="131.723" stroke="#D3D3D3"/>
<line x1="42.416" y1="87.7226" x2="46.416" y2="93.7226" stroke="#D3D3D3"/>
<line x1="42.4111" y1="68.7154" x2="51.4111" y2="81.7154" stroke="#D3D3D3"/>
<line x1="42.5" y1="145" x2="42.5" y2="68" stroke="black"/>
<line x1="46.5" y1="151" x2="46.5" y2="132" stroke="#D3D3D3"/>
<line x1="46.5" y1="113" x2="46.5" y2="94" stroke="black"/>
<line x1="84.5" y1="131" x2="84.5" y2="112" stroke="black"/>
<line x1="46.5" y1="132" x2="46.5" y2="113" stroke="black"/>
<line x1="51.5" y1="157" x2="51.5" y2="138" stroke="black"/>
<line x1="89.5" y1="157" x2="89.5" y2="138" stroke="black"/>
<line x1="46.5" y1="94" x2="46.5" y2="75" stroke="#D3D3D3"/>
<line x1="65.5" y1="112" x2="65.5" y2="101" stroke="black"/>
<line x1="46.4069" y1="93.7094" x2="51.4069" y2="100.709" stroke="black"/>
<path d="M46 131L52 139" stroke="black"/>
<line x1="65.4069" y1="131.709" x2="70.4069" y2="138.709" stroke="#E5E5E5"/>
<path d="M84.4069 131.709L89.5 138.5" stroke="black"/>
<path d="M79.5 106.5L84.5 112.5" stroke="black"/>
<line x1="42.4111" y1="144.715" x2="51.4111" y2="157.715" stroke="#D3D3D3"/>
<line x1="65" y1="106.5" x2="80" y2="106.5" stroke="black"/>
<line x1="65" y1="112.5" x2="85" y2="112.5" stroke="black"/>
<line x1="51" y1="100.5" x2="71" y2="100.5" stroke="black"/>
<line x1="51" y1="138.5" x2="90" y2="138.5" stroke="#D3D3D3"/>
<line x1="51" y1="138.5" x2="90" y2="138.5" stroke="black"/>
<line x1="46" y1="131.5" x2="85" y2="131.5" stroke="black"/>
<line x1="51.5" y1="138" x2="51.5" y2="221" stroke="black"/>
<line x1="89.5" y1="138" x2="89.5" y2="221" stroke="black"/>
<line x1="89.5" y1="81" x2="89.5" y2="30" stroke="black"/>
<line x1="51.5" y1="82" x2="51.5" y2="30" stroke="black"/>
<line x1="71" y1="81.5" x2="90" y2="81.5" stroke="black"/>
<line x1="42.5" y1="208" x2="42.5" y2="126" stroke="black"/>
<line x1="51.5" y1="82" x2="51.5" y2="101" stroke="black"/>
<line x1="70.5" y1="101" x2="70.5" y2="81" stroke="black"/>
<line x1="70" y1="81.5" x2="52" y2="81.5" stroke="#D3D3D3"/>
<line x1="70" y1="157.5" x2="52" y2="157.5" stroke="#E5E5E5"/>
<path d="M56.6165 247V241.909H58.3366C58.736 241.909 59.0625 241.981 59.3161 242.125C59.5713 242.268 59.7602 242.461 59.8828 242.705C60.0054 242.948 60.0668 243.22 60.0668 243.52C60.0668 243.82 60.0054 244.092 59.8828 244.338C59.7618 244.583 59.5746 244.779 59.321 244.924C59.0675 245.069 58.7427 245.141 58.3466 245.141H57.1136V244.594H58.3267C58.6001 244.594 58.8197 244.547 58.9854 244.452C59.1512 244.358 59.2713 244.23 59.3459 244.069C59.4221 243.907 59.4602 243.724 59.4602 243.52C59.4602 243.316 59.4221 243.134 59.3459 242.973C59.2713 242.812 59.1503 242.686 58.983 242.595C58.8156 242.502 58.5935 242.456 58.3168 242.456H57.233V247H56.6165ZM60.9803 247V243.182H61.5669V247H60.9803ZM61.2786 242.545C61.1642 242.545 61.0656 242.507 60.9828 242.429C60.9016 242.351 60.861 242.257 60.861 242.148C60.861 242.038 60.9016 241.945 60.9828 241.867C61.0656 241.789 61.1642 241.75 61.2786 241.75C61.3929 241.75 61.4907 241.789 61.5719 241.867C61.6548 241.945 61.6962 242.038 61.6962 242.148C61.6962 242.257 61.6548 242.351 61.5719 242.429C61.4907 242.507 61.3929 242.545 61.2786 242.545ZM64.2423 247.08C63.8744 247.08 63.557 246.998 63.2902 246.836C63.0251 246.672 62.8204 246.443 62.6762 246.15C62.5337 245.855 62.4624 245.512 62.4624 245.121C62.4624 244.73 62.5337 244.385 62.6762 244.087C62.8204 243.787 63.0209 243.553 63.2778 243.386C63.5363 243.217 63.8379 243.132 64.1826 243.132C64.3815 243.132 64.5779 243.165 64.7718 243.232C64.9656 243.298 65.1421 243.406 65.3012 243.555C65.4603 243.702 65.5871 243.898 65.6816 244.141C65.776 244.385 65.8232 244.685 65.8232 245.041V245.29H62.8801V244.783H65.2267C65.2267 244.567 65.1836 244.375 65.0974 244.206C65.0129 244.037 64.8919 243.904 64.7345 243.806C64.5787 243.708 64.3947 243.659 64.1826 243.659C63.949 243.659 63.7468 243.717 63.5761 243.833C63.407 243.947 63.277 244.097 63.1858 244.281C63.0947 244.464 63.0491 244.662 63.0491 244.872V245.21C63.0491 245.499 63.0988 245.743 63.1982 245.944C63.2993 246.142 63.4394 246.294 63.6183 246.398C63.7973 246.501 64.0053 246.553 64.2423 246.553C64.3964 246.553 64.5356 246.531 64.6599 246.488C64.7858 246.443 64.8944 246.377 64.9855 246.289C65.0767 246.2 65.1471 246.089 65.1968 245.956L65.7636 246.115C65.7039 246.307 65.6037 246.476 65.4628 246.622C65.3219 246.766 65.1479 246.879 64.9408 246.96C64.7336 247.04 64.5008 247.08 64.2423 247.08ZM68.2668 247.08C67.9088 247.08 67.6006 246.995 67.3421 246.826C67.0835 246.657 66.8847 246.424 66.7455 246.127C66.6063 245.831 66.5367 245.492 66.5367 245.111C66.5367 244.723 66.6079 244.381 66.7504 244.084C66.8946 243.786 67.0951 243.553 67.352 243.386C67.6105 243.217 67.9121 243.132 68.2568 243.132C68.5253 243.132 68.7673 243.182 68.9827 243.281C69.1981 243.381 69.3746 243.52 69.5122 243.699C69.6497 243.878 69.7351 244.087 69.7682 244.325H69.1816C69.1368 244.151 69.0374 243.997 68.8833 243.863C68.7308 243.727 68.5253 243.659 68.2668 243.659C68.0381 243.659 67.8376 243.719 67.6652 243.838C67.4945 243.956 67.3611 244.122 67.265 244.338C67.1705 244.551 67.1233 244.803 67.1233 245.091C67.1233 245.386 67.1697 245.643 67.2625 245.862C67.357 246.08 67.4896 246.25 67.6602 246.371C67.8326 246.492 68.0348 246.553 68.2668 246.553C68.4192 246.553 68.5576 246.526 68.6819 246.473C68.8062 246.42 68.9114 246.344 68.9976 246.244C69.0838 246.145 69.1451 246.026 69.1816 245.886H69.7682C69.7351 246.112 69.653 246.315 69.5221 246.495C69.3928 246.674 69.2213 246.817 69.0075 246.923C68.7954 247.027 68.5485 247.08 68.2668 247.08ZM72.2267 247.08C71.8588 247.08 71.5414 246.998 71.2746 246.836C71.0094 246.672 70.8048 246.443 70.6606 246.15C70.5181 245.855 70.4468 245.512 70.4468 245.121C70.4468 244.73 70.5181 244.385 70.6606 244.087C70.8048 243.787 71.0053 243.553 71.2622 243.386C71.5207 243.217 71.8223 243.132 72.167 243.132C72.3659 243.132 72.5622 243.165 72.7561 243.232C72.95 243.298 73.1265 243.406 73.2856 243.555C73.4447 243.702 73.5715 243.898 73.6659 244.141C73.7604 244.385 73.8076 244.685 73.8076 245.041V245.29H70.8644V244.783H73.211C73.211 244.567 73.1679 244.375 73.0818 244.206C72.9972 244.037 72.8763 243.904 72.7188 243.806C72.5631 243.708 72.3791 243.659 72.167 243.659C71.9333 243.659 71.7311 243.717 71.5605 243.833C71.3914 243.947 71.2613 244.097 71.1702 244.281C71.079 244.464 71.0335 244.662 71.0335 244.872V245.21C71.0335 245.499 71.0832 245.743 71.1826 245.944C71.2837 246.142 71.4237 246.294 71.6027 246.398C71.7817 246.501 71.9897 246.553 72.2267 246.553C72.3808 246.553 72.52 246.531 72.6443 246.488C72.7702 246.443 72.8788 246.377 72.9699 246.289C73.0611 246.2 73.1315 246.089 73.1812 245.956L73.748 246.115C73.6883 246.307 73.588 246.476 73.4472 246.622C73.3063 246.766 73.1323 246.879 72.9252 246.96C72.718 247.04 72.4852 247.08 72.2267 247.08ZM76.5395 245.956V245.449L78.7767 241.909H79.1446V242.695H78.896L77.2057 245.369V245.409H80.2185V245.956H76.5395ZM78.9358 247V245.802V245.566V241.909H79.5225V247H78.9358Z" fill="black"/>
</svg>
