<svg width="137" height="339" viewBox="0 0 137 339" fill="none" xmlns="http://www.w3.org/2000/svg">
<rect width="137" height="339" fill="white"/>
<path d="M52.273 76.5L43.9158 63.5H81.6358L90.0791 76.5H52.273Z" stroke="black"/>
<path d="M43 254L52 268H91" stroke="black"/>
<line x1="43.5" y1="63" x2="43.5" y2="120" stroke="black"/>
<line x1="43.5" y1="192" x2="43.5" y2="115" stroke="black"/>
<line x1="47.5" y1="160" x2="47.5" y2="141" stroke="black"/>
<line x1="85.5" y1="178" x2="85.5" y2="159" stroke="black"/>
<line x1="47.5" y1="179" x2="47.5" y2="160" stroke="black"/>
<line x1="52.5" y1="204" x2="52.5" y2="185" stroke="black"/>
<line x1="90.5" y1="204" x2="90.5" y2="185" stroke="black"/>
<line x1="66.5" y1="159" x2="66.5" y2="148" stroke="black"/>
<line x1="47.4069" y1="140.709" x2="52.4069" y2="147.709" stroke="black"/>
<path d="M47 178L53 186" stroke="black"/>
<path d="M85.4069 178.709L90.5001 185.5" stroke="black"/>
<path d="M80.4999 153.5L85.4999 159.5" stroke="black"/>
<line x1="66" y1="153.5" x2="81" y2="153.5" stroke="black"/>
<line x1="66" y1="159.5" x2="86" y2="159.5" stroke="black"/>
<line x1="52" y1="147.5" x2="72" y2="147.5" stroke="black"/>
<line x1="52" y1="185.5" x2="91" y2="185.5" stroke="#D3D3D3"/>
<line x1="52" y1="185.5" x2="91" y2="185.5" stroke="black"/>
<line x1="47" y1="178.5" x2="86" y2="178.5" stroke="black"/>
<line x1="52.5" y1="185" x2="52.5" y2="268" stroke="black"/>
<line x1="90.5" y1="185" x2="90.5" y2="268" stroke="black"/>
<line x1="90.5" y1="128" x2="90.5" y2="77" stroke="black"/>
<line x1="52.5" y1="129" x2="52.5" y2="77" stroke="black"/>
<line x1="72" y1="128.5" x2="91" y2="128.5" stroke="black"/>
<line x1="43.5" y1="255" x2="43.5" y2="173" stroke="black"/>
<line x1="52.5" y1="129" x2="52.5" y2="148" stroke="black"/>
<line x1="71.5" y1="148" x2="71.5" y2="128" stroke="black"/>
<line x1="66.5" y1="17" x2="66.5" y2="69" stroke="#D000E2"/>
<line x1="65.5" y1="302" x2="65.5" y2="268" stroke="#D000E2"/>
<path d="M76.2886 47.0469C76.0383 47.1637 75.9301 47.4612 76.0469 47.7114L77.9499 51.7893C78.0667 52.0395 78.3642 52.1477 78.6144 52.0309C78.8647 51.9141 78.9729 51.6166 78.8561 51.3664L77.1645 47.7416L80.7893 46.0501C81.0395 45.9333 81.1477 45.6358 81.0309 45.3856C80.9141 45.1353 80.6166 45.0271 80.3664 45.1439L76.2886 47.0469ZM76.3291 47.9699C77.6884 48.4642 78.7093 48.9287 79.4391 49.3586C80.1805 49.7952 80.5714 50.1675 80.7379 50.4542C80.8164 50.5894 80.8372 50.692 80.8355 50.7691C80.8338 50.845 80.8096 50.932 80.7398 51.0362C80.5884 51.2623 80.2498 51.5268 79.6628 51.7953C78.5036 52.3255 76.6374 52.7557 74.3226 53.0509C72.0199 53.3446 69.3137 53.5 66.5001 53.5V54.5C69.3475 54.5 72.0968 54.3429 74.4492 54.0429C76.7896 53.7443 78.7782 53.2995 80.0787 52.7047C80.7216 52.4107 81.2641 52.0502 81.5706 51.5927C81.7298 51.3551 81.8288 51.0857 81.8352 50.791C81.8417 50.4974 81.7555 50.2153 81.6027 49.9521C81.3065 49.4419 80.7372 48.9626 79.9467 48.4969C79.1445 48.0245 78.0616 47.5358 76.6709 47.0301L76.3291 47.9699ZM66.5001 53.5C60.8577 53.5 55.1851 52.7498 52.3156 51.5985C51.598 51.3106 51.1066 51.0169 50.8315 50.7414C50.5725 50.482 50.5609 50.3073 50.6134 50.1598C50.6899 49.9446 50.9615 49.6168 51.6459 49.2155C52.3122 48.825 53.2937 48.4085 54.6516 47.9765L54.3484 47.0235C52.9563 47.4665 51.8966 47.9094 51.1402 48.3528C50.4021 48.7856 49.8698 49.2663 49.6712 49.8246C49.4486 50.4505 49.6906 51.0141 50.1239 51.448C50.5412 51.8659 51.1808 52.2207 51.9432 52.5265C54.9932 53.7502 60.8207 54.5 66.5001 54.5V53.5Z" fill="#400045"/>
</svg>
