<svg width="556" height="264" viewBox="0 0 556 264" fill="none" xmlns="http://www.w3.org/2000/svg">
<rect width="556" height="264" fill="white"/>
<path d="M64.273 35.5L55.9158 22.5H93.6358L102.079 35.5H64.273Z" stroke="black"/>
<path d="M102.273 35.5L93.9158 22.5H131.636L140.079 35.5H102.273Z" stroke="black"/>
<line x1="60.416" y1="139.723" x2="64.416" y2="145.723" stroke="#D3D3D3"/>
<line x1="80.3904" y1="140.688" x2="84.3904" y2="145.688" stroke="#D3D3D3" stroke-dasharray="2 2"/>
<line x1="80.3904" y1="158.688" x2="84.3904" y2="163.688" stroke="#D3D3D3" stroke-dasharray="2 2"/>
<line x1="81" y1="140.5" x2="61" y2="140.5" stroke="#E5E5E5" stroke-dasharray="2 2"/>
<line x1="81" y1="158.5" x2="61" y2="158.5" stroke="#E5E5E5" stroke-dasharray="2 2"/>
<line x1="60.416" y1="158.723" x2="64.416" y2="164.723" stroke="#D3D3D3"/>
<rect x="64.5" y="35.5" width="38" height="192" stroke="black"/>
<rect x="182.5" y="171.5" width="38" height="192" transform="rotate(-90 182.5 171.5)" stroke="black"/>
<rect x="102.5" y="35.5" width="38" height="192" stroke="black"/>
<path d="M55 22V215" stroke="black"/>
<line x1="64.5889" y1="227.285" x2="55.5889" y2="214.285" stroke="black"/>
<line x1="182.589" y1="172.285" x2="173.589" y2="159.285" stroke="black"/>
<line x1="174.589" y1="160.285" x2="165.589" y2="147.285" stroke="black"/>
<line x1="182.589" y1="134.285" x2="173.589" y2="121.285" stroke="black"/>
<line x1="476.587" y1="135.282" x2="431.587" y2="69.2817" stroke="black"/>
<line x1="514.589" y1="134.285" x2="469.589" y2="69.2846" stroke="black"/>
<line x1="476.556" y1="210.238" x2="431.589" y2="145.285" stroke="black"/>
<line x1="476.556" y1="173.238" x2="431.589" y2="108.285" stroke="black"/>
<line x1="174.589" y1="122.285" x2="165.589" y2="109.285" stroke="black"/>
<line x1="374.589" y1="134.285" x2="365.589" y2="121.285" stroke="black"/>
<line x1="366.589" y1="122.285" x2="357.589" y2="109.285" stroke="black"/>
<line x1="85" y1="164.5" x2="65" y2="164.5" stroke="#E5E5E5"/>
<line x1="85" y1="145.5" x2="65" y2="145.5" stroke="#E5E5E5"/>
<line x1="84.5" y1="145" x2="84.5" y2="165" stroke="#D3D3D3"/>
<line x1="60.5" y1="140" x2="60.5" y2="159" stroke="#D3D3D3"/>
<line x1="80.5" y1="140" x2="80.5" y2="159" stroke="#D3D3D3" stroke-dasharray="2 2"/>
<path d="M23.7457 156.455C23.7457 155.828 23.8269 155.252 23.9893 154.727C24.1534 154.2 24.3871 153.715 24.6903 153.273H25.2074C25.0881 153.437 24.9762 153.639 24.8718 153.879C24.7691 154.118 24.6787 154.381 24.6009 154.667C24.523 154.952 24.4616 155.247 24.4169 155.552C24.3738 155.857 24.3523 156.158 24.3523 156.455C24.3523 156.849 24.3904 157.249 24.4666 157.655C24.5429 158.061 24.6456 158.438 24.7749 158.786C24.9041 159.134 25.0483 159.418 25.2074 159.636H24.6903C24.3871 159.194 24.1534 158.71 23.9893 158.185C23.8269 157.658 23.7457 157.081 23.7457 156.455ZM27.7236 159.07C27.3491 159.07 27.0301 158.968 26.7666 158.764C26.5031 158.558 26.3018 158.261 26.1626 157.871C26.0233 157.48 25.9537 157.008 25.9537 156.455C25.9537 155.904 26.0233 155.435 26.1626 155.045C26.3034 154.654 26.5056 154.356 26.7691 154.15C27.0342 153.943 27.3524 153.839 27.7236 153.839C28.0948 153.839 28.4122 153.943 28.6757 154.15C28.9408 154.356 29.143 154.654 29.2822 155.045C29.4231 155.435 29.4935 155.904 29.4935 156.455C29.4935 157.008 29.4239 157.48 29.2847 157.871C29.1455 158.261 28.9442 158.558 28.6807 158.764C28.4172 158.968 28.0982 159.07 27.7236 159.07ZM27.7236 158.523C28.0948 158.523 28.3832 158.344 28.5887 157.986C28.7942 157.628 28.8969 157.117 28.8969 156.455C28.8969 156.014 28.8497 155.638 28.7552 155.328C28.6624 155.019 28.5282 154.782 28.3525 154.62C28.1785 154.458 27.9689 154.376 27.7236 154.376C27.3557 154.376 27.0682 154.558 26.8611 154.921C26.6539 155.282 26.5503 155.793 26.5503 156.455C26.5503 156.895 26.5967 157.27 26.6895 157.578C26.7823 157.886 26.9157 158.121 27.0898 158.282C27.2654 158.442 27.4767 158.523 27.7236 158.523ZM31.1453 158.304L31.1056 158.572C31.0774 158.761 31.0343 158.964 30.9763 159.179C30.92 159.394 30.8611 159.597 30.7998 159.788C30.7385 159.979 30.6879 160.13 30.6482 160.243H30.2007C30.2223 160.137 30.2504 159.997 30.2852 159.823C30.32 159.649 30.3548 159.454 30.3896 159.239C30.4261 159.025 30.4559 158.806 30.4791 158.582L30.509 158.304H31.1453ZM35.8516 159.07C35.477 159.07 35.158 158.968 34.8945 158.764C34.631 158.558 34.4297 158.261 34.2905 157.871C34.1513 157.48 34.0817 157.008 34.0817 156.455C34.0817 155.904 34.1513 155.435 34.2905 155.045C34.4313 154.654 34.6335 154.356 34.897 154.15C35.1622 153.943 35.4804 153.839 35.8516 153.839C36.2228 153.839 36.5401 153.943 36.8036 154.15C37.0688 154.356 37.271 154.654 37.4102 155.045C37.551 155.435 37.6214 155.904 37.6214 156.455C37.6214 157.008 37.5518 157.48 37.4126 157.871C37.2734 158.261 37.0721 158.558 36.8086 158.764C36.5451 158.968 36.2261 159.07 35.8516 159.07ZM35.8516 158.523C36.2228 158.523 36.5111 158.344 36.7166 157.986C36.9221 157.628 37.0249 157.117 37.0249 156.455C37.0249 156.014 36.9776 155.638 36.8832 155.328C36.7904 155.019 36.6561 154.782 36.4805 154.62C36.3065 154.458 36.0968 154.376 35.8516 154.376C35.4837 154.376 35.1961 154.558 34.989 154.921C34.7818 155.282 34.6783 155.793 34.6783 156.455C34.6783 156.895 34.7247 157.27 34.8175 157.578C34.9103 157.886 35.0437 158.121 35.2177 158.282C35.3933 158.442 35.6046 158.523 35.8516 158.523ZM39.2733 158.304L39.2335 158.572C39.2053 158.761 39.1622 158.964 39.1042 159.179C39.0479 159.394 38.9891 159.597 38.9277 159.788C38.8664 159.979 38.8159 160.13 38.7761 160.243H38.3287C38.3502 160.137 38.3784 159.997 38.4132 159.823C38.448 159.649 38.4828 159.454 38.5176 159.239C38.554 159.025 38.5839 158.806 38.6071 158.582L38.6369 158.304H39.2733ZM43.9795 159.07C43.605 159.07 43.286 158.968 43.0225 158.764C42.759 158.558 42.5576 158.261 42.4184 157.871C42.2792 157.48 42.2096 157.008 42.2096 156.455C42.2096 155.904 42.2792 155.435 42.4184 155.045C42.5593 154.654 42.7615 154.356 43.0249 154.15C43.2901 153.943 43.6083 153.839 43.9795 153.839C44.3507 153.839 44.6681 153.943 44.9316 154.15C45.1967 154.356 45.3989 154.654 45.5381 155.045C45.6789 155.435 45.7494 155.904 45.7494 156.455C45.7494 157.008 45.6798 157.48 45.5406 157.871C45.4014 158.261 45.2 158.558 44.9365 158.764C44.673 158.968 44.354 159.07 43.9795 159.07ZM43.9795 158.523C44.3507 158.523 44.6391 158.344 44.8445 157.986C45.05 157.628 45.1528 157.117 45.1528 156.455C45.1528 156.014 45.1056 155.638 45.0111 155.328C44.9183 155.019 44.7841 154.782 44.6084 154.62C44.4344 154.458 44.2248 154.376 43.9795 154.376C43.6116 154.376 43.3241 154.558 43.1169 154.921C42.9098 155.282 42.8062 155.793 42.8062 156.455C42.8062 156.895 42.8526 157.27 42.9454 157.578C43.0382 157.886 43.1716 158.121 43.3456 158.282C43.5213 158.442 43.7326 158.523 43.9795 158.523ZM47.9568 156.455C47.9568 157.081 47.8747 157.658 47.7107 158.185C47.5483 158.71 47.3154 159.194 47.0122 159.636H46.4951C46.6144 159.472 46.7255 159.27 46.8282 159.03C46.9326 158.791 47.0238 158.529 47.1017 158.244C47.1795 157.958 47.24 157.662 47.2831 157.357C47.3279 157.05 47.3502 156.75 47.3502 156.455C47.3502 156.06 47.3121 155.66 47.2359 155.254C47.1597 154.848 47.0569 154.471 46.9276 154.123C46.7984 153.775 46.6542 153.491 46.4951 153.273H47.0122C47.3154 153.715 47.5483 154.2 47.7107 154.727C47.8747 155.252 47.9568 155.828 47.9568 156.455Z" fill="black"/>
<rect x="65" y="146" width="19" height="18" fill="#E5E5E5" fill-opacity="0.28"/>
<path d="M61 141.5L64 146V163L61 159V141.5Z" fill="#E5E5E5" fill-opacity="0.28"/>
<path d="M61.5 140.5H80.5L84.5 145.5H64.5L61.5 140.5Z" fill="#E5E5E5" fill-opacity="0.28"/>
<path d="M78.321 251.179C77.8371 251.179 77.398 251.088 77.0036 250.906C76.6091 250.72 76.2959 250.453 76.0639 250.105C75.8319 249.754 75.7159 249.33 75.7159 248.832C75.7159 248.395 75.8021 248.04 75.9744 247.768C76.1468 247.493 76.3771 247.278 76.6655 247.122C76.9538 246.966 77.272 246.85 77.62 246.774C77.9714 246.695 78.3243 246.632 78.679 246.585C79.143 246.526 79.5192 246.481 79.8075 246.451C80.0992 246.418 80.3113 246.363 80.4439 246.287C80.5798 246.211 80.6477 246.078 80.6477 245.889V245.849C80.6477 245.359 80.5135 244.978 80.245 244.706C79.9799 244.434 79.5772 244.298 79.0369 244.298C78.4768 244.298 78.0376 244.421 77.7195 244.666C77.4013 244.911 77.1776 245.173 77.0483 245.452L75.9347 245.054C76.1335 244.59 76.3987 244.229 76.7301 243.97C77.0649 243.708 77.4295 243.526 77.8239 243.423C78.2216 243.317 78.6127 243.264 78.9972 243.264C79.2424 243.264 79.5241 243.294 79.8423 243.354C80.1638 243.41 80.4737 243.528 80.772 243.707C81.0736 243.886 81.3239 244.156 81.5227 244.517C81.7216 244.878 81.821 245.362 81.821 245.969V251H80.6477V249.966H80.5881C80.5085 250.132 80.3759 250.309 80.1903 250.498C80.0047 250.687 79.7578 250.848 79.4496 250.98C79.1413 251.113 78.7652 251.179 78.321 251.179ZM78.5 250.125C78.964 250.125 79.3551 250.034 79.6733 249.852C79.9948 249.669 80.2367 249.434 80.3991 249.146C80.5649 248.857 80.6477 248.554 80.6477 248.236V247.162C80.598 247.222 80.4886 247.276 80.3196 247.326C80.1539 247.372 79.9616 247.414 79.7429 247.45C79.5275 247.483 79.317 247.513 79.1115 247.54C78.9093 247.563 78.7453 247.583 78.6193 247.599C78.3144 247.639 78.0294 247.704 77.7642 247.793C77.5024 247.879 77.2902 248.01 77.1278 248.186C76.9688 248.358 76.8892 248.594 76.8892 248.892C76.8892 249.3 77.04 249.608 77.3416 249.817C77.6465 250.022 78.0327 250.125 78.5 250.125Z" fill="black"/>
<path d="M374.176 116.159C373.46 116.159 372.844 115.99 372.327 115.652C371.81 115.314 371.412 114.848 371.134 114.255C370.855 113.662 370.716 112.984 370.716 112.222C370.716 111.446 370.858 110.762 371.143 110.168C371.432 109.572 371.833 109.106 372.347 108.771C372.864 108.433 373.467 108.264 374.156 108.264C374.693 108.264 375.177 108.364 375.608 108.562C376.039 108.761 376.392 109.04 376.667 109.398C376.942 109.756 377.113 110.173 377.179 110.651H376.006C375.916 110.303 375.717 109.994 375.409 109.726C375.104 109.454 374.693 109.318 374.176 109.318C373.719 109.318 373.318 109.437 372.973 109.676C372.632 109.911 372.365 110.245 372.173 110.675C371.984 111.103 371.889 111.605 371.889 112.182C371.889 112.772 371.982 113.286 372.168 113.723C372.357 114.161 372.622 114.5 372.963 114.742C373.308 114.984 373.712 115.105 374.176 115.105C374.481 115.105 374.758 115.052 375.006 114.946C375.255 114.84 375.465 114.688 375.638 114.489C375.81 114.29 375.933 114.051 376.006 113.773H377.179C377.113 114.223 376.949 114.629 376.687 114.991C376.428 115.349 376.085 115.634 375.658 115.846C375.233 116.055 374.74 116.159 374.176 116.159Z" fill="black"/>
<path d="M527.276 160.159C526.54 160.159 525.905 159.997 525.371 159.672C524.841 159.344 524.432 158.886 524.143 158.3C523.858 157.71 523.716 157.024 523.716 156.241C523.716 155.459 523.858 154.77 524.143 154.173C524.432 153.573 524.833 153.106 525.347 152.771C525.864 152.433 526.467 152.264 527.156 152.264C527.554 152.264 527.947 152.33 528.335 152.463C528.722 152.596 529.075 152.811 529.393 153.109C529.712 153.404 529.965 153.795 530.154 154.283C530.343 154.77 530.438 155.37 530.438 156.082V156.58H524.551V155.565H529.244C529.244 155.134 529.158 154.75 528.986 154.412C528.817 154.074 528.575 153.807 528.26 153.612C527.948 153.416 527.58 153.318 527.156 153.318C526.689 153.318 526.285 153.434 525.943 153.666C525.605 153.895 525.345 154.193 525.163 154.561C524.98 154.929 524.889 155.323 524.889 155.744V156.42C524.889 156.997 524.989 157.486 525.188 157.887C525.39 158.285 525.67 158.588 526.028 158.797C526.386 159.002 526.802 159.105 527.276 159.105C527.584 159.105 527.862 159.062 528.111 158.976C528.363 158.886 528.58 158.754 528.762 158.578C528.944 158.399 529.085 158.177 529.185 157.912L530.318 158.23C530.199 158.615 529.998 158.953 529.717 159.244C529.435 159.533 529.087 159.758 528.673 159.92C528.258 160.08 527.793 160.159 527.276 160.159Z" fill="black"/>
<path d="M527.474 191.364V192.358H523.358V191.364H527.474ZM524.591 199V190.31C524.591 189.872 524.694 189.508 524.899 189.216C525.105 188.924 525.371 188.705 525.7 188.56C526.028 188.414 526.374 188.341 526.739 188.341C527.027 188.341 527.262 188.364 527.445 188.411C527.627 188.457 527.763 188.5 527.852 188.54L527.514 189.554C527.455 189.534 527.372 189.509 527.266 189.479C527.163 189.45 527.027 189.435 526.858 189.435C526.47 189.435 526.19 189.532 526.018 189.728C525.849 189.924 525.764 190.21 525.764 190.588V199H524.591Z" fill="black"/>
<path d="M383.957 130.159C383.321 130.159 382.759 129.998 382.272 129.677C381.785 129.352 381.404 128.895 381.129 128.305C380.853 127.711 380.716 127.01 380.716 126.202C380.716 125.4 380.853 124.704 381.129 124.114C381.404 123.524 381.786 123.068 382.277 122.746C382.768 122.425 383.334 122.264 383.977 122.264C384.474 122.264 384.867 122.347 385.156 122.513C385.447 122.675 385.669 122.861 385.822 123.07C385.978 123.275 386.098 123.444 386.185 123.577H386.284V119.818H387.457V130H386.324V128.827H386.185C386.098 128.966 385.976 129.142 385.817 129.354C385.658 129.562 385.431 129.75 385.136 129.915C384.841 130.078 384.448 130.159 383.957 130.159ZM384.116 129.105C384.587 129.105 384.985 128.982 385.31 128.737C385.634 128.489 385.881 128.146 386.05 127.708C386.219 127.267 386.304 126.759 386.304 126.182C386.304 125.612 386.221 125.113 386.055 124.685C385.89 124.254 385.644 123.92 385.32 123.681C384.995 123.439 384.594 123.318 384.116 123.318C383.619 123.318 383.205 123.446 382.874 123.701C382.545 123.953 382.299 124.296 382.133 124.73C381.97 125.161 381.889 125.645 381.889 126.182C381.889 126.725 381.972 127.219 382.138 127.663C382.307 128.104 382.555 128.455 382.884 128.717C383.215 128.976 383.626 129.105 384.116 129.105Z" fill="black"/>
<path d="M118.233 251V240.818H119.406V244.577H119.506C119.592 244.444 119.711 244.275 119.864 244.07C120.019 243.861 120.241 243.675 120.53 243.513C120.821 243.347 121.216 243.264 121.713 243.264C122.356 243.264 122.923 243.425 123.413 243.746C123.904 244.068 124.287 244.524 124.562 245.114C124.837 245.704 124.974 246.4 124.974 247.202C124.974 248.01 124.837 248.711 124.562 249.305C124.287 249.895 123.906 250.352 123.418 250.677C122.931 250.998 122.369 251.159 121.733 251.159C121.242 251.159 120.85 251.078 120.555 250.915C120.26 250.75 120.033 250.562 119.874 250.354C119.714 250.142 119.592 249.966 119.506 249.827H119.366V251H118.233ZM119.386 247.182C119.386 247.759 119.471 248.267 119.64 248.708C119.809 249.146 120.056 249.489 120.381 249.737C120.705 249.982 121.103 250.105 121.574 250.105C122.064 250.105 122.474 249.976 122.802 249.717C123.133 249.455 123.382 249.104 123.548 248.663C123.717 248.219 123.801 247.725 123.801 247.182C123.801 246.645 123.718 246.161 123.553 245.73C123.39 245.296 123.143 244.953 122.812 244.701C122.484 244.446 122.071 244.318 121.574 244.318C121.097 244.318 120.696 244.439 120.371 244.681C120.046 244.92 119.801 245.254 119.635 245.685C119.469 246.113 119.386 246.612 119.386 247.182Z" fill="black"/>
<line x1="366" y1="121.5" x2="174" y2="121.5" stroke="black"/>
<line x1="358" y1="109.5" x2="166" y2="109.5" stroke="black"/>
<line x1="173.5" y1="121" x2="173.5" y2="160" stroke="black"/>
<line x1="476.5" y1="134" x2="476.5" y2="173" stroke="black"/>
<line x1="514.5" y1="134" x2="514.5" y2="173" stroke="black"/>
<line x1="514.5" y1="172" x2="514.5" y2="211" stroke="black"/>
<line x1="165.5" y1="109" x2="165.5" y2="148" stroke="black"/>
<line x1="476" y1="172.5" x2="514" y2="172.5" stroke="black"/>
<line x1="476" y1="210.5" x2="514" y2="210.5" stroke="black"/>
<line x1="476" y1="134.5" x2="514" y2="134.5" stroke="black"/>
<line x1="476.5" y1="172" x2="476.5" y2="211" stroke="black"/>
<line x1="470" y1="69.5" x2="431" y2="69.5" stroke="black"/>
<line x1="431.5" y1="69" x2="431.5" y2="146" stroke="black"/>
</svg>
